<svg width="22" height="21" viewBox="0 0 22 21" fill="none" xmlns="http://www.w3.org/2000/svg">
<path d="M22 8.92655C22 4.00444 17.0654 0 11 0C4.93465 0 0 4.00444 0 8.92655C0 13.3392 3.91313 17.0348 9.19942 17.7332C9.55776 17.8103 10.0453 17.9694 10.1683 18.2756C10.2793 18.5537 10.241 18.9891 10.204 19.2704C10.204 19.2704 10.0752 20.0467 10.0471 20.2121C9.99899 20.4902 9.82606 21.2995 11 20.8053C12.1739 20.3106 17.335 17.0754 19.6428 14.4191H19.6423C21.2365 12.6707 22 10.8969 22 8.92699" fill="white"/>
<path d="M8.76711 6.548H7.99563C7.87752 6.548 7.78125 6.64383 7.78125 6.76193V11.5548C7.78125 11.6729 7.87707 11.7687 7.99563 11.7687H8.76711C8.88522 11.7687 8.98148 11.6729 8.98148 11.5548V6.76193C8.98148 6.64383 8.88566 6.548 8.76711 6.548Z" fill="#06C755"/>
<path d="M14.0768 6.548H13.3053C13.1868 6.548 13.0909 6.64383 13.0909 6.76193V9.60939L10.8946 6.64293C10.8897 6.63536 10.8839 6.62823 10.8781 6.6211C10.8777 6.62065 10.8772 6.62021 10.8768 6.61976C10.8728 6.61486 10.8683 6.61085 10.8639 6.60639C10.8625 6.60505 10.8612 6.60416 10.8598 6.60282C10.8563 6.5997 10.8523 6.59614 10.8483 6.59346C10.8465 6.59168 10.8447 6.59034 10.8429 6.58901C10.8393 6.58633 10.8358 6.58366 10.8318 6.58143C10.8295 6.58009 10.8278 6.57876 10.8255 6.57742C10.8215 6.57519 10.8179 6.57296 10.8139 6.57118C10.8117 6.57029 10.8095 6.56895 10.8072 6.56806C10.8032 6.56628 10.7992 6.5645 10.7948 6.56271C10.7925 6.56182 10.7903 6.56093 10.7876 6.56048C10.7836 6.5587 10.7792 6.55736 10.7752 6.55647C10.7729 6.55558 10.7703 6.55513 10.7676 6.55469C10.7636 6.5538 10.7596 6.55291 10.7551 6.55202C10.752 6.55157 10.7489 6.55112 10.7462 6.55068C10.7426 6.54979 10.7386 6.54979 10.735 6.54934C10.7315 6.54934 10.7279 6.5489 10.7239 6.54845C10.7212 6.54845 10.719 6.54845 10.7163 6.54845H9.94484C9.82674 6.54845 9.73047 6.64427 9.73047 6.76238V11.5552C9.73047 11.6733 9.82629 11.7692 9.94484 11.7692H10.7163C10.8349 11.7692 10.9307 11.6733 10.9307 11.5552V8.70867L13.1297 11.6787C13.1449 11.7001 13.1636 11.7175 13.1841 11.7313C13.185 11.7317 13.1854 11.7322 13.1863 11.7331C13.1908 11.7357 13.1952 11.7384 13.1997 11.7411C13.2019 11.7424 13.2037 11.7433 13.2059 11.7442C13.2091 11.746 13.2126 11.7478 13.2162 11.7491C13.2198 11.7504 13.2229 11.7522 13.2264 11.7536C13.2287 11.7544 13.2304 11.7553 13.2327 11.7558C13.2376 11.7576 13.2425 11.7589 13.2474 11.7607C13.2483 11.7607 13.2496 11.7611 13.2505 11.7616C13.2679 11.7665 13.2862 11.7687 13.3053 11.7687H14.0768C14.1954 11.7687 14.2912 11.6729 14.2912 11.5548V6.76193C14.2912 6.64383 14.1954 6.548 14.0768 6.548Z" fill="#06C755"/>
<path d="M6.90567 10.5685H4.80916V6.76195C4.80916 6.64384 4.71334 6.54802 4.59523 6.54802H3.82375C3.70564 6.54802 3.60938 6.64384 3.60938 6.76195V11.5544C3.60938 11.6123 3.6321 11.6644 3.6691 11.7028C3.66999 11.7037 3.67088 11.705 3.67222 11.7059C3.67311 11.7068 3.67445 11.7077 3.67534 11.709C3.71367 11.746 3.76581 11.7687 3.8233 11.7687H6.90612C7.02423 11.7687 7.12005 11.6729 7.12005 11.5544V10.7829C7.12005 10.6648 7.02423 10.5685 6.90612 10.5685" fill="#06C755"/>
<path d="M18.3358 7.74822C18.4539 7.74822 18.5497 7.6524 18.5497 7.53385V6.76238C18.5497 6.64383 18.4539 6.548 18.3358 6.548H15.253C15.1951 6.548 15.1429 6.57118 15.1041 6.60862C15.1032 6.60951 15.1024 6.6104 15.1019 6.61085C15.1006 6.61218 15.0997 6.61352 15.0983 6.61486C15.0618 6.65318 15.0391 6.70533 15.0391 6.76238V11.5548C15.0391 11.6127 15.0618 11.6649 15.0988 11.7032C15.0997 11.7041 15.1006 11.7054 15.1019 11.7063C15.1028 11.7072 15.1041 11.7081 15.105 11.709C15.1434 11.746 15.1955 11.7687 15.253 11.7687H18.3358C18.4539 11.7687 18.5497 11.6729 18.5497 11.5543V10.7829C18.5497 10.6648 18.4539 10.5685 18.3358 10.5685H16.2393V9.75824H18.3358C18.4539 9.75824 18.5497 9.66242 18.5497 9.54387V8.7724C18.5497 8.65385 18.4539 8.55803 18.3358 8.55803H16.2393V7.74822H18.3358Z" fill="#06C755"/>
</svg>
